<svg width="39" height="39" viewBox="0 0 39 39" fill="none" xmlns="http://www.w3.org/2000/svg">
<path d="M11.3153 31.4259C12.6137 30.0326 14.5928 30.1434 15.7328 31.6634L17.332 33.8009C18.6145 35.4951 20.6887 35.4951 21.9712 33.8009L23.5703 31.6634C24.7103 30.1434 26.6895 30.0326 27.9878 31.4259C30.8062 34.4343 33.102 33.4368 33.102 29.2251L33.102 11.3809C33.1178 5.00009 31.6295 3.40092 25.6445 3.40092L13.6745 3.40092C7.68951 3.40092 6.20117 5.00009 6.20117 11.3809L6.20117 29.2093C6.20117 33.4368 8.51284 34.4184 11.3153 31.4259Z" stroke="white" stroke-width="1.5" stroke-linecap="round" stroke-linejoin="round"/>
<path d="M14.9102 20.8176L24.4102 11.3176" stroke="white" stroke-width="1.5" stroke-linecap="round" stroke-linejoin="round"/>
<path d="M24.4021 20.8176L24.4163 20.8176" stroke="white" stroke-width="2" stroke-linecap="round" stroke-linejoin="round"/>
<path d="M14.9021 12.1092L14.9163 12.1092" stroke="white" stroke-width="2" stroke-linecap="round" stroke-linejoin="round"/>
</svg>
